<?xml version="1.0" standalone="no"?><!DOCTYPE svg PUBLIC "-//W3C//DTD SVG 1.1//EN" "http://www.w3.org/Graphics/SVG/1.1/DTD/svg11.dtd"><svg class="icon" width="1000px" height="967.86px" viewBox="0 0 1058 1024" version="1.1" xmlns="http://www.w3.org/2000/svg"><path d="M741.037956 145.167397c4.604834-2.762901 9.555031-5.640922 14.965711-5.871163 5.065318 0.230242 9.670152 2.993142 14.044744 5.525801 11.396965 7.137493 21.642721 16.11692 31.427993 25.326588 20.951996 19.800787 39.831816 41.558628 57.560427 64.352557 23.484654 30.507026 44.551771 62.971107 60.323328 98.198089 8.518943 19.570545 15.426194 40.177178 17.153007 61.589657 2.993142 53.416076-20.14615 107.292636-60.093086 142.74986-28.665093 25.671951-65.618887 41.673749-103.83901 45.127375V648.706015c0.230242 8.288702-6.561889 15.426194-14.505228 16.462282h-3.683867c-5.295559-0.920967-10.360877-4.02923-12.893536-8.979427-2.302417-4.144351-1.726813-8.979427-1.841934-13.46914v-60.553569c-43.861046-3.914109-85.995278-24.520742-115.811579-56.869702-25.211467-26.823159-41.78887-61.589657-46.739067-98.082968-1.841934-14.159865-2.532659-28.780214-0.230242-42.940079 3.453626-21.642721 11.396965-42.364474 20.721754-62.05014 17.49837-36.032827 40.292299-69.302754 65.388645-100.385386 14.274986-17.49837 29.355818-34.421135 45.70298-49.96245 10.015514-9.785273 20.491512-19.110062 32.34896-26.708039m-5.986285 46.048342c-13.008657 12.202811-25.096346 25.326588-36.723552 38.910849-20.951996 24.750984-40.40742 50.998539-56.869702 78.857785-10.706239 18.189095-20.26127 37.184036-26.93828 57.215065-4.144351 12.778415-7.022372 26.247555-6.446768 39.831816 0.690725 34.99674 14.620349 69.417875 38.220123 95.204946 23.945138 26.477797 57.675548 43.976166 93.132772 47.775155 0-38.105003 0.115121-76.210006 0-114.315009-3.798988-0.345363-7.482856-1.611692-10.245756-4.489713-16.577403-16.577403-33.154806-33.154806-49.73221-49.617088-2.302417-2.187296-4.259472-4.835076-4.950196-7.943339-2.187296-7.137493 1.611692-15.426194 8.403822-18.304216 5.640922-2.762901 12.893536-1.496571 17.383249 2.993142 13.123777 13.008657 26.017313 26.132434 39.141091 39.02597v-70.914447c0.115121-3.914109-0.460483-8.05846 1.266329-11.857448 2.64778-6.79213 10.245756-11.166723 17.383249-10.015514 7.713097 0.920967 14.159865 7.943339 14.159865 15.771557 0.115121 41.903991 0 83.807982 0.115121 125.596852 13.123777-13.008657 26.017313-26.132434 39.14109-39.025969 4.374592-4.259472 11.396965-5.525801 17.037887-2.993143 6.907251 2.878021 10.936481 11.051602 8.864306 18.304216-1.036088 4.604834-4.604834 7.713097-7.828218 10.821361-18.304216 18.304216-36.608432 36.723553-55.027769 55.027768-1.036088 1.036088-2.532659 2.072175-2.187296 3.798988v57.90579c35.802586-3.914109 69.763238-21.5276 93.708375-48.350759 23.254413-25.787071 36.953794-59.977965 37.64452-94.744463 0.575604-12.893536-2.072175-25.671951-5.871164-37.874761-6.446768-20.14615-16.001799-39.02597-26.592917-57.215065-12.08769-20.606633-25.787071-40.292299-40.522541-59.056998-15.311074-19.570545-31.658235-38.565486-49.501967-55.948735-7.943339-7.713097-16.23204-15.311074-25.441709-21.412479-7.367735 5.065318-14.159865 11.051602-20.721754 17.037886z m0 0M373.80243 5.871164c4.604834-2.762901 9.555031-5.640922 14.965711-5.871164 5.065318 0.230242 9.670152 2.993142 14.044744 5.525801 11.396965 7.137493 21.642721 16.11692 31.427994 25.326588 20.951996 19.800787 39.831816 41.558628 57.560427 64.352558 23.484654 30.507026 44.551771 62.971107 60.323327 98.198088 8.518943 19.570545 15.426194 40.177178 17.153008 61.589658 2.993142 53.416076-20.14615 107.292636-60.093086 142.749859-28.665093 25.671951-65.618887 41.673749-103.839011 45.127375V509.409781c0.230242 8.288702-6.561889 15.426194-14.505228 16.462282h-3.683867c-5.295559-0.920967-10.360877-4.02923-12.893536-8.979427-2.302417-4.144351-1.726813-8.979427-1.841933-13.46914v-60.553569c-43.861046-3.914109-85.995278-24.520742-115.81158-56.869702-25.211467-26.823159-41.78887-61.589657-46.739067-98.082968-1.841934-14.159865-2.532659-28.780214-0.230241-42.940079 3.453626-21.642721 11.396965-42.364474 20.721753-62.05014C247.745094 146.779089 270.423903 113.509162 295.63537 82.426532c14.274986-17.49837 29.355818-34.421135 45.702979-49.962451 10.130635-9.670152 20.606633-18.994941 32.464081-26.592917m-5.986284 46.048341c-13.008657 12.202811-25.096346 25.326588-36.723553 38.910849-20.951996 24.866105-40.292299 50.998539-56.869702 78.972906C263.516651 187.992355 253.961621 206.872175 247.399732 227.018325c-4.144351 12.778415-7.022372 26.247555-6.446768 39.831816 0.690725 34.99674 14.620349 69.417875 38.220124 95.204946 23.945138 26.477797 57.675548 43.976166 93.132771 47.775155 0-38.105003 0.115121-76.210006 0-114.315009-3.798988-0.345363-7.482856-1.611692-10.245756-4.489713-16.577403-16.577403-33.154806-33.154806-49.732209-49.617088-2.302417-2.187296-4.259472-4.835076-4.950197-7.943339-2.187296-7.137493 1.611692-15.426194 8.403822-18.304216 5.640922-2.762901 12.893536-1.496571 17.383249 2.993142 13.123777 13.008657 26.017313 26.132434 39.141091 39.02597V186.265542c0.115121-3.914109-0.460483-8.05846 1.266329-11.857448 2.64778-6.79213 10.245756-11.166723 17.383249-10.015514 7.713097 0.920967 14.159865 7.943339 14.159865 15.771557 0.115121 41.903991 0 83.807982 0.115121 125.596852 13.123777-13.008657 26.017313-26.132434 39.141091-39.025969 4.374592-4.259472 11.396965-5.525801 17.037886-2.993143 6.907251 2.878021 10.936481 11.051602 8.864306 18.304216-1.036088 4.604834-4.604834 7.713097-7.828218 10.821361-18.304216 18.304216-36.608432 36.723553-55.027768 55.027768-1.036088 1.036088-2.532659 2.072175-2.187297 3.798988v57.90579c35.802586-3.914109 69.763238-21.5276 93.708376-48.350759 23.254413-25.787071 36.953794-59.977965 37.644519-94.744463 0.575604-12.893536-2.072175-25.671951-5.871163-37.874761-6.446768-20.14615-16.001799-39.02597-26.592918-57.215065-12.08769-20.606633-25.787071-40.292299-40.522541-59.056998-15.311074-19.570545-31.658235-38.565486-49.501967-55.948735-7.943339-7.713097-16.23204-15.311074-25.441709-21.412479-7.482856 4.950197-14.274986 10.936481-20.836874 16.922765z m0 0" fill="#029938" /><path d="M567.435707 241.523553c21.182237-11.972569 37.989882-38.795728-9.555031-33.845532 4.144351 10.936481 7.482856 22.218325 9.555031 33.845532zM515.516202 604.039123s-120.531535-45.242496-218.26914-71.37493c-17.613491-4.719955-241.753794-75.979764-82.19629-119.265205 12.317931-3.338505 30.852389-7.713097 56.754581-12.663294-5.41068-4.604834-10.591119-9.43991-15.426194-14.735469-9.209668-9.785273-17.153007-20.606633-23.945138-32.233839-24.520742 4.02923-48.696121 8.518943-70.338842 13.814502-70.1086 16.922766-199.619562 95.204947-124.791006 224.600787 32.34896 55.948735 171.875436 142.174255 198.12299 163.241372C359.297202 854.657223 397.056843 929.370658 396.481238 929.485779h40.062058C419.850772 902.432378 392.452008 861.449354 360.218169 823.689713 286.540822 724.685779 49.161621 608.643957 53.996696 535.887577c-8.05846-25.326588 17.268128-78.282181 40.2923-97.852726s77.130972-48.350759 79.433389-37.989882-65.388645 28.31973-47.19955 71.37493c59.862844 77.130972 307.372681 126.63294 382.201236 165.77403 21.412479 9.555031 68.842271 23.599775 119.495447 49.84733 71.950534 37.299157 151.959528 91.290838 184.423609 121.682743 37.874761 35.572344 77.361214 89.909387 98.428331 120.646656h46.163462s-117.423272-211.016526-441.718718-325.331535z" fill="#029938" /></svg>